<svg width="1200" height="675" viewBox="0 0 1200 675" fill="none" xmlns="http://www.w3.org/2000/svg">
  <rect width="1200" height="675" fill="#f1f5f9"/>
  <rect x="54" y="54" width="1092" height="567" rx="26" fill="#ffffff" stroke="#cbd5e1" stroke-width="2"/>
  <rect x="92" y="96" width="1016" height="82" rx="18" fill="#1f2937"/>
  <text x="130" y="148" fill="#ffffff" font-family="Arial, sans-serif" font-size="30" font-weight="700">Maison &amp; Architecture</text>
  <rect x="94" y="218" width="298" height="324" rx="22" fill="#e2e8f0"/>
  <path d="M132 496L244 286L354 496H132Z" fill="#475569"/>
  <path d="M194 496L244 402L294 496H194Z" fill="#94a3b8"/>
  <rect x="432" y="218" width="302" height="150" rx="22" fill="#fff7ed" stroke="#fed7aa" stroke-width="2"/>
  <rect x="772" y="218" width="302" height="150" rx="22" fill="#ecfeff" stroke="#a5f3fc" stroke-width="2"/>
  <rect x="432" y="392" width="642" height="150" rx="22" fill="#f8fafc" stroke="#cbd5e1" stroke-width="2"/>
  <text x="472" y="273" fill="#9a3412" font-family="Arial, sans-serif" font-size="24" font-weight="700">Public site</text>
  <text x="812" y="273" fill="#155e75" font-family="Arial, sans-serif" font-size="24" font-weight="700">Partner portal</text>
  <text x="472" y="448" fill="#111827" font-family="Arial, sans-serif" font-size="24" font-weight="700">Admin workflows</text>
  <rect x="472" y="306" width="188" height="14" rx="7" fill="#fdba74"/>
  <rect x="812" y="306" width="190" height="14" rx="7" fill="#67e8f9"/>
  <rect x="472" y="486" width="502" height="14" rx="7" fill="#94a3b8"/>
  <rect x="472" y="516" width="410" height="14" rx="7" fill="#cbd5e1"/>
</svg>
