<svg width="1200" height="675" viewBox="0 0 1200 675" fill="none" xmlns="http://www.w3.org/2000/svg">
  <rect width="1200" height="675" fill="#0f172a"/>
  <rect x="42" y="42" width="1116" height="591" rx="28" fill="#f8fafc"/>
  <rect x="80" y="82" width="252" height="511" rx="20" fill="#111827"/>
  <circle cx="122" cy="128" r="18" fill="#38bdf8"/>
  <rect x="156" y="116" width="118" height="12" rx="6" fill="#e5e7eb"/>
  <rect x="112" y="184" width="168" height="18" rx="9" fill="#64748b"/>
  <rect x="112" y="236" width="180" height="16" rx="8" fill="#334155"/>
  <rect x="112" y="278" width="142" height="16" rx="8" fill="#334155"/>
  <rect x="112" y="320" width="162" height="16" rx="8" fill="#334155"/>
  <rect x="112" y="526" width="140" height="30" rx="15" fill="#38bdf8"/>
  <rect x="380" y="82" width="738" height="118" rx="22" fill="#e0f2fe"/>
  <text x="418" y="132" fill="#0f172a" font-family="Arial, sans-serif" font-size="34" font-weight="700">Pikeah</text>
  <text x="418" y="168" fill="#334155" font-family="Arial, sans-serif" font-size="20">LinkedIn outreach, teams, inbox, campaigns</text>
  <rect x="380" y="236" width="334" height="154" rx="22" fill="#ffffff" stroke="#cbd5e1" stroke-width="2"/>
  <rect x="752" y="236" width="366" height="154" rx="22" fill="#ffffff" stroke="#cbd5e1" stroke-width="2"/>
  <rect x="380" y="424" width="738" height="169" rx="22" fill="#ffffff" stroke="#cbd5e1" stroke-width="2"/>
  <rect x="418" y="276" width="122" height="18" rx="9" fill="#0ea5e9"/>
  <rect x="418" y="320" width="248" height="14" rx="7" fill="#94a3b8"/>
  <rect x="418" y="350" width="178" height="14" rx="7" fill="#cbd5e1"/>
  <rect x="790" y="276" width="132" height="18" rx="9" fill="#14b8a6"/>
  <rect x="790" y="320" width="276" height="14" rx="7" fill="#94a3b8"/>
  <rect x="790" y="350" width="214" height="14" rx="7" fill="#cbd5e1"/>
  <rect x="418" y="466" width="220" height="16" rx="8" fill="#0f172a"/>
  <rect x="418" y="510" width="610" height="12" rx="6" fill="#cbd5e1"/>
  <rect x="418" y="542" width="520" height="12" rx="6" fill="#cbd5e1"/>
  <rect x="418" y="574" width="650" height="12" rx="6" fill="#cbd5e1"/>
</svg>
