<svg width="1200" height="675" viewBox="0 0 1200 675" fill="none" xmlns="http://www.w3.org/2000/svg">
  <rect width="1200" height="675" fill="#f8fafc"/>
  <rect x="64" y="60" width="1072" height="555" rx="28" fill="#ffffff" stroke="#cbd5e1" stroke-width="2"/>
  <rect x="104" y="100" width="246" height="475" rx="22" fill="#111827"/>
  <circle cx="150" cy="148" r="24" fill="#60a5fa"/>
  <rect x="190" y="134" width="112" height="12" rx="6" fill="#e5e7eb"/>
  <rect x="132" y="214" width="168" height="16" rx="8" fill="#475569"/>
  <rect x="132" y="258" width="124" height="16" rx="8" fill="#334155"/>
  <rect x="132" y="302" width="148" height="16" rx="8" fill="#334155"/>
  <text x="402" y="154" fill="#111827" font-family="Arial, sans-serif" font-size="36" font-weight="700">premgautam.me</text>
  <text x="402" y="194" fill="#475569" font-family="Arial, sans-serif" font-size="20">Projects, career, dashboard, and AI command palette</text>
  <rect x="402" y="250" width="292" height="132" rx="22" fill="#eff6ff" stroke="#bfdbfe" stroke-width="2"/>
  <rect x="734" y="250" width="292" height="132" rx="22" fill="#f0fdf4" stroke="#bbf7d0" stroke-width="2"/>
  <rect x="402" y="420" width="624" height="112" rx="22" fill="#f8fafc" stroke="#cbd5e1" stroke-width="2"/>
  <rect x="440" y="296" width="128" height="18" rx="9" fill="#2563eb"/>
  <rect x="772" y="296" width="128" height="18" rx="9" fill="#16a34a"/>
  <rect x="440" y="462" width="500" height="14" rx="7" fill="#94a3b8"/>
  <rect x="440" y="494" width="390" height="14" rx="7" fill="#cbd5e1"/>
</svg>
