<svg width="1200" height="675" viewBox="0 0 1200 675" fill="none" xmlns="http://www.w3.org/2000/svg">
  <rect width="1200" height="675" fill="#f8fafc"/>
  <rect x="68" y="64" width="1064" height="547" rx="28" fill="#111827"/>
  <text x="112" y="132" fill="#ffffff" font-family="Arial, sans-serif" font-size="34" font-weight="700">ZyFlow</text>
  <text x="112" y="168" fill="#cbd5e1" font-family="Arial, sans-serif" font-size="20">No-code scraping workflow builder</text>
  <rect x="118" y="226" width="220" height="110" rx="20" fill="#ecfeff"/>
  <rect x="490" y="226" width="220" height="110" rx="20" fill="#fef3c7"/>
  <rect x="862" y="226" width="220" height="110" rx="20" fill="#dcfce7"/>
  <path d="M354 281H472" stroke="#38bdf8" stroke-width="10" stroke-linecap="round"/>
  <path d="M726 281H844" stroke="#38bdf8" stroke-width="10" stroke-linecap="round"/>
  <text x="160" y="290" fill="#155e75" font-family="Arial, sans-serif" font-size="24" font-weight="700">Source</text>
  <text x="532" y="290" fill="#92400e" font-family="Arial, sans-serif" font-size="24" font-weight="700">Extract</text>
  <text x="900" y="290" fill="#166534" font-family="Arial, sans-serif" font-size="24" font-weight="700">Export</text>
  <rect x="118" y="404" width="964" height="116" rx="22" fill="#1f2937"/>
  <rect x="158" y="445" width="244" height="14" rx="7" fill="#64748b"/>
  <rect x="158" y="477" width="364" height="14" rx="7" fill="#334155"/>
  <rect x="778" y="438" width="238" height="48" rx="24" fill="#38bdf8"/>
  <text x="842" y="469" fill="#0f172a" font-family="Arial, sans-serif" font-size="18" font-weight="700">Run flow</text>
</svg>
